<svg enable-background="new 0 0 1500 500" height="500" viewBox="0 0 1500 500" width="1500" xmlns="http://www.w3.org/2000/svg"><g clip-rule="evenodd" fill-rule="evenodd"><path d="m228.028 479.621c-5.213-5.663-9.311-12.048-12.92-18.65-5.007-9.158-9.619-18.48-11.262-29.084-1.676-10.815 1.971-19.64 9.061-27.157 7.416-7.863 15.466-15.104 19.925-25.302 4.396-10.053 2.941-19.656-1.709-29.121-.433-.882-.852-1.97-2.061-1.834-1.304.146-1.16 1.5-1.445 2.353-3.119 9.349-8.855 15.704-18.451 19.293-12.512 4.679-20.515 13.786-22.279 27.56-.073.573-.555 1.094-.894 1.727-2.372-1.359-1.874-3.544-2.146-5.385-1.723-11.667-1.908-23.418-.552-35.081 1.068-9.183 2.552-18.413 7.09-26.751.588-1.08.882-2.227-.156-3.206-.959-.905-1.903-.142-2.732.274-10.244 5.14-20.398 10.386-30.062 16.636-14.188 9.177-29.137 12.36-45.052 3.846-3.18-1.701-6.82-2.566-10.289-3.69-1.115-.361-2.542-.381-2.589-1.809-.053-1.611 1.679-1.482 2.634-1.729 11.342-2.939 21.654-8.35 32.228-13.159 9.246-4.206 15.606-11.722 22.302-18.854 2.713-2.89 5.069-6.121 7.489-9.273.872-1.135 2.092-2.389 1.215-4.008-.75-1.385-2.253-1.182-3.58-1.213-13.952-.333-27.923-1.282-41.849-.826-13.6.444-26.902 3.624-39.716 8.298-7.385 2.694-13.867 1.766-20.203-2.779-6.196-4.445-12.705-8.5-17.714-14.341-.996-1.161-3.305-2.755-1.708-4.653 1.382-1.643 3.002.329 4.47.83 11.603 3.958 23.178 7.24 35.262 1.562 4.726-2.221 8.498-5.699 12.717-8.592 7.33-5.024 14.184-11.208 24.055-10.518 3.834.268 7.542 1.092 11.175 2.24 7.3 2.309 14.629 2.381 22.109.941 2.112-.406 3.661-1.558 5.315-2.565 3.762-2.293 4.983-.752 5.299 2.989 1.141 13.505 5.514 25.968 13.202 37.06 12.215 17.624 29.379 27.914 50.176 32.322 11.45 2.428 22.916 2.407 34.494.356 5.128-.907 7.497 4.072 9.755 7.349 9.361 13.574 8.523 29.857-1.857 42.988-9.552 12.083-18.891 24.375-29.118 35.868-6.4 7.193-7.426 15.531-8.712 24.228-1.509 10.218-1.034 20.417-.917 30.86z" fill="#e5f0fe"/><path d="m201.098 165.841c-1.152-8.421 2.815-15.728 6.091-23.13 5.115-11.56 11.416-22.474 18.544-32.934 10.315-15.136 12.769-31.944 10.532-49.851-.839-6.719-.19-13.591-1.219-20.35-.298-1.955-.268-4.021.004-5.982.243-1.751-2.292-4.086-.146-4.872 2.191-.803 2.844 2.364 3.765 3.867 12.029 19.631 19.458 41.128 23.976 63.515 2.192 10.863-1.083 21.428-7.054 30.851-4.447 7.019-8.738 14.095-11.684 21.9-2.754 7.299-2.577 14.65.052 21.888.906 2.493.541 3.183-2.104 3.296-11.678.503-23.06 2.589-33.729 7.518-2.775 1.282-3.801.441-4.861-1.937-1.947-4.363-2.606-8.891-2.167-13.779z" fill="#e5f0fe"/><path d="m404.455 239.034c10.5-1.231 21.414 1.76 31.807 7.095 3.565 1.83 6.72 4.261 9.491 7.155.985 1.029 2.725 1.985 1.868 3.688-.905 1.803-2.543.593-3.962.445-8.213-.853-16.115-3.355-24.51-3.582-13.577-.366-25.454 4.09-36.5 11.158-10.493 6.715-21.345 12.723-32.627 17.923-7.649 3.526-15.862 4.646-24.293 4.093-3.077-.201-4.076-1.336-3.083-4.506 2.747-8.771 3.971-17.808 3.28-26.979-.31-4.123 1.672-5.687 5.17-6.384 19.598-3.907 39.21-7.762 59.079-10.036 4.271-.488 8.646-.07 14.28-.07z" fill="#e5f0fe"/><path d="m126.7 116.01c13.195-1.086 22.449 6.732 26.458 19.024 3.596 11.022 8.519 21.409 17.588 29.007 5.984 5.013 12.013 9.936 17.377 15.614 1.245 1.317 2.22 2.886 3.426 4.243 2.322 2.615 1.666 4.897-.803 6.824-8.049 6.284-15 13.549-20.205 22.382-1.316 2.232-2.571 1.717-3.751.069-6.458-9.021-14.07-17.42-17.98-27.932-3.513-9.441-6.37-19.464-6.509-29.435-.2-14.357-13.111-26.5-24.123-28.788-4.038-.839-7.941-2.454-12.202-2.053-.93.087-2.244.258-2.462-1.03-.191-1.13 1.033-1.496 1.79-2.118 6.311-5.187 13.776-6.018 21.396-5.807z" fill="#e5f0fe"/><path d="m417.039 338.257c-7.923-3.124-13.239-8.308-19.345-12.206-7.331-4.682-15.021-8.602-23.118-11.62-10.151-3.785-19.215.374-28.041 4.86-6.636 3.374-13.461 4.556-20.958 3.974-6.659-.518-13.206-1.033-19.5-3.363-5.21-1.929-5.406-2.955-1.603-6.895 5.091-5.271 9.724-10.905 12.801-17.631 1.415-3.091 3.087-4.788 6.89-3.408 7.201 2.614 14.448.139 21.641-.47 9.076-.767 18.06-1.678 26.93 1.5 3.846 1.377 7.179 3.293 10.021 6.226 7.169 7.398 14.913 14.169 22.722 20.886 5.304 4.563 9.498 10.056 11.56 18.147z" fill="#e5f0fe"/><path d="m279.56 83.906c4.735 7.93 6.459 16.785 8.462 25.575 5.219 22.901 3.978 46.167 3.895 69.349-.036 9.909-.484 10.041-9.282 5.426-8.004-4.199-16.429-7.263-25.209-9.044-4.272-.867-3.7-2.133-1.725-4.677 6.775-8.729 11.843-18.404 15.386-28.832 3.408-10.031 5.729-20.302 7.042-30.873 1.111-8.944.553-17.88 1.431-26.924z" fill="#e5f0fe"/><path d="m114.099 196.939c8.06.2 14.868 2.575 19.047 10.218 1.578 2.886 3.786 5.426 5.704 8.126 4.709 6.633 11.815 8.245 19.208 8.612 4.56.226 5.517 1.656 3.946 5.82-2.34 6.198-4.616 12.463-4.028 19.312.257 2.992-1.708 3.25-3.913 2.803-18.608-3.771-32.281-14.017-40.299-31.324-3.41-7.36-13.396-12.082-22.342-10.209-2.259.473-5.471 2.889-6.638.708-1.19-2.223 2.729-3.109 4.358-4.547 7.086-6.255 15.383-9.573 24.957-9.519z" fill="#e5f0fe"/><path d="m314.045 354.662c.234 20.788-9.551 35.703-26.851 46.267-.991.605-1.863 1.488-2.924 1.877-1.561.571-2.8 3.308-4.681 1.461-1.429-1.404-.388-3.404.332-5.131 3.768-9.038 7.641-18.032 10.691-27.357 4.307-13.166-.792-26.761-12.785-33.885-1.165-.691-3.352-.688-3.061-2.668.206-1.396 1.999-1.619 3.162-2.163 6.473-3.026 12.9-6.065 17.985-11.334 3.172-3.287 5.542-2.513 8.196 1.236 6.779 9.574 9.674 20.195 9.936 31.697z" fill="#e5f0fe"/><path d="m404.88 217.285c-6.496-1.97-12.338-3.242-17.771-5.497-9.488-3.938-17.118-1.361-23.908 5.523-5.133 5.204-10.53 10.06-16.337 14.548-5.929 4.583-12.943 4.627-19.668 6.03-1.672.349-3.268-.725-3.6-2.125-1.691-7.132-4.934-13.642-8.482-20.565 6.562-.11 12.12-1.474 17.571-3.496 6.206-2.302 10.309-7.162 14.732-11.642 5.507-5.575 11.758-9.127 19.947-8.067 4.763.616 8.495 3.618 12.534 5.68 8.716 4.449 17.054 9.681 23.536 17.29.384.45.637 1.01 1.446 2.321z" fill="#e5f0fe"/><path d="m341.025 161.325c-.374 10.336-4.549 18.556-10.714 25.73-4.642 5.402-10.008 10.149-14.644 15.616-4.144 4.886-4.821 4.571-9.284.241-3.927-3.81-7.423-8.077-12.038-11.175-1.133-.76-2.669-1.827-1.84-3.664 3.716-8.232 6.119-17.542 15.558-21.495 4.164-1.744 8-3.971 11.943-6.09 6.581-3.537 8.027-10.247 10.768-16.198.206-.447.172-1.012.407-1.435 1.336-2.4.948-7.184 3.462-7.015 2.563.172 2.5 4.829 3.14 7.537 1.439 6.097 2.266 12.337 3.242 17.948z" fill="#e5f0fe"/><path d="m58 343c7.633-.265 15.311.785 22.9-.769 9.132-1.869 15.966-7.089 21.35-14.506 3.421-4.713 7.072-9.261 10.444-14.008 5.774-8.128 14.005-10.729 23.448-10.808 8.461-.07 16.539-1.392 23.59-6.634 2.572-1.913 4.359-4.495 6.714-7.338 4.292 9.959 9.243 18.909 16.302 26.519 21.659 23.349 48.387 29.525 78.759 23.122 7.195-1.517 14.075-4.11 20.481-7.705 2.663-1.494 4.847-1.269 7.452-.187 14.17 5.881 22.743 25.103 19.214 38.492-3.708 14.07-8.862 27.723-15.187 40.563-7.691 15.614-5.909 30.422-1.686 45.888 1.749 6.405 4.123 12.562 7.157 18.344-.835 1.026-1.464.344-1.879.041-11.594-8.47-22.443-17.688-31.429-29.051-11.018-13.931-11.042-28.241-2.558-43.176 3.806-6.701 6.749-13.702 8.049-21.355 2.176-12.811-2.103-23.918-12.719-32.562-1.004 1.701-.379 3.538-.514 5.272-.667 8.605-3.319 15.899-10.588 21.578-12.195 9.526-17.051 22.175-13.229 37.794-2.355-.746-2.991-2.646-3.7-4.156-8.198-17.451-14.146-35.521-14.326-55.055-.024-2.637.56-5.275.783-7.92.098-1.162.113-2.478-1.126-3.081-1.108-.54-1.822.442-2.539 1.102-8.227 7.564-16 15.603-22.985 24.296-10.7 13.316-23.332 21.46-41.331 18.574-4.988-.8-10.214-.122-15.254-.122-.583-2.66 1.265-3.026 2.376-3.743 8.16-5.265 15.099-11.987 22.406-18.299 12.528-10.822 18.525-25.324 23.82-40.324.503-1.426 1.169-2.886-.107-4.2-.786-.809-1.872-.699-2.79-.228-9.158 4.708-19.391 5.701-29.117 8.433-18.085 5.08-33.893 14.482-48.803 25.544-4.014 2.978-8.27 4.661-13.026 3.572-10.684-2.443-21.397-4.986-30.352-11.907 0-.667 0-1.333 0-2z" fill="#7697d3"/><path d="m164.042 41.315c13.819 9.405 23.307 20.978 32.362 32.913 4.421 5.828 8.36 12.025 12.466 18.09 8.514 12.576 9.693 26.195 5.774 40.567-2.718 9.966-5.263 19.96-2.807 30.426 1.047 4.462 3.173 8.375 5.799 12.055 1.207 1.69 2.019 2.813-.903 3.901-11.307 4.208-21.933 9.688-30.594 18.326-2.345 2.339-3.266-.038-4.23-1.175-7.578-8.937-9.546-19.456-8.521-30.824 1.409-15.615 4.85-30.783 8.989-45.895 3.918-14.305 1.438-28.351-4.034-41.97-4.689-11.672-9.204-23.417-14.301-36.414z" fill="#7697d3"/><path d="m439.06 194.46c-5.847 3.026-11.655 2.576-17.189 3.327-17.267 2.342-31.616 9.767-42.405 23.576-7.71 9.868-16.53 18.69-25.551 27.298-6.222 5.937-13.728 9.819-22.146 11.911-3.25.808-4.886.54-4.84-3.517.108-9.555-2.021-18.778-5.187-27.755-.702-1.99-1.478-3.669 1.022-5.051 22.526-12.453 44.534-25.956 69.164-34.137 11.255-3.739 22.741-4.639 34.348-2.023 4.508 1.016 8.74 2.918 12.784 6.371z" fill="#7697d3"/><path d="m69.193 175.095c.599-1.533.833-2.462 1.293-3.26 9.643-16.715 37.297-19.02 48.741-3.606 9.649 12.995 21.302 22.657 36.945 27.415 5.564 1.692 10.651 4.619 15.351 8.172 3.172 2.397 3.965 4.422 1.309 8.107-6.176 8.572-10.388 18.145-12.392 29.518-11.563-8.167-23.776-14.836-31.475-26.77-5.585-8.658-10.605-17.653-15.14-26.963-4.389-9.01-12.473-13.672-22.383-14.673-7.283-.736-14.577-.319-22.249 2.06z" fill="#7697d3"/><path d="m318.012 298.007c-1.017-1.75.112-3.127.753-4.623 3.336-7.795 6.821-15.559 7.414-24.185.164-2.385 1.438-3.108 3.59-3.118 5.808-.024 10.986-2.22 16.153-4.604 10.396-4.798 20.582-10.279 32.645-9.617 3.912.215 7.646.891 11.038 2.71 9.835 5.273 20.079 9.651 30.245 14.208 6.629 2.971 11.309 7.147 13.651 12.278-6.496.072-12.058-2.806-17.855-4.396-8.199-2.25-16.477-3.74-24.902-4.818-11.611-1.485-20.678 3.302-27.935 11.417-9.454 10.574-21.832 13.274-34.889 14.685-3.287.354-6.648.025-9.975.01z" fill="#7697d3"/><path d="m232.494 183.263c44.929.654 75.848 27.385 80.104 66.716 3.748 34.637-25.302 76.003-53.809 78.792.47-1.649 2.039-1.984 3.158-2.714 20.315-13.234 30.648-32.766 32.85-56.122 3.378-35.841-13.356-63.022-47.42-79.813-4.716-2.325-9.551-4.41-14.883-6.859z" fill="#7697d3"/><path d="m267.772 177.96c-13.583-2.799-26.688-4.374-40.456-1.697 11.796-32.475 8.178-63.745-3.429-95.065 14.137 9.443 36.772 59.523 43.885 96.762z" fill="#7697d3"/><path d="m157.911 251.184c.085 9.441-.812 18.156 2.516 26.428.829 2.062-.595 2.154-1.975 2.39-18.433 3.144-34.637-2.208-47.408-15.18-8.722-8.858-17.946-9.168-27.29-3.975-1.726.959-3.416 1.982-6.419 3.731 4.996-10.582 11.146-18.11 20.769-22.486 9.744-4.431 18.875-4.568 27.105 3.453 9.366 9.128 20.381 10.174 32.702 5.639z" fill="#7697d3"/><path d="m317.944 297.952c3.766 4.163 8.8 6.877 12.37 11.339 18.601 23.246 19.642 51.963-3.977 75.879-.798.809-1.57 2.175-2.82 1.6-1.629-.749-1.331-2.492-1.193-3.981.903-9.759 1.724-19.52 1.751-29.334.043-15.953-8.106-26.216-23.761-29.792-1.128-.258-2.253-.526-4.026-.941 6.179-5.405 11.766-10.853 16.234-17.364 1.716-2.502 2.102-6.087 5.49-7.35 0-.001-.068-.056-.068-.056z" fill="#7697d3"/><path d="m299.138 195.579c7.334-2.643 13.507-6.268 18.66-11.643 3.922-4.091 5.552-9.405 8.284-14.124 1.848-3.191 3.732-6.318 6.806-8.469 4.337-3.035 8.833-4.582 14.457-3.639 10.157 1.702 20.307 3.181 29.885 7.214 2.604 1.097 5.046 2.414 8.585 5.172-6.734 0-12.1.42-17.375-.087-11.334-1.087-18.575 3.974-23.492 13.816-2.883 5.771-6.016 11.435-9.739 16.791-4.537 6.527-10.955 9.955-18.004 12.708-1.277.499-2.567 1.193-3.479-.411-3.726-6.553-9.228-11.648-14.588-17.328z" fill="#7697d3"/><path d="m292.083 112.939c6.69 7.473 11.514 15.582 15.02 24.375 2.899 7.269 2.025 14.707-.46 21.931-3.14 9.125-8.038 17.469-12.005 26.229-1.328 2.932-2.943 4.2-6.44 1.849-4.8-3.228-10.183-5.576-15.744-7.378-1.959-.634-3.781-1.439-3.318-4.114.903-5.217 1.021-10.563 2.669-15.661 1.047-3.238 2.527-6.387 5.234-8.325 11.624-8.324 16.38-19.56 15.067-33.618-.165-1.749-.023-3.525-.023-5.288z" fill="#7697d3"/></g><path d="m501.011 207.786c0-3.15-1.68-4.62-4.62-4.62h-8.61v-17.431h20.161c9.45 0 13.44 3.99 13.44 13.44v34.651c0 5.041-.42 8.82-.42 8.82h.42s9.24-17.431 34.231-17.431c28.561 0 46.622 22.681 46.622 55.652 0 33.812-20.371 55.652-48.302 55.652-23.73 0-33.391-17.851-33.391-17.851h-.42s.42 3.359.42 7.979v7.353h-19.53v-126.214zm49.981 111.304c16.8 0 30.661-13.86 30.661-38.012 0-23.101-12.391-38.011-30.241-38.011-15.75 0-30.451 11.13-30.451 38.221 0 18.9 9.871 37.802 30.031 37.802z" fill="#4d4d4d"/><path d="m627.431 207.786c0-3.15-1.68-4.62-4.62-4.62h-8.61v-17.431h20.161c9.45 0 13.44 3.99 13.44 13.44v112.773c0 3.15 1.68 4.62 4.62 4.62h8.61v17.432h-20.161c-9.45 0-13.44-3.99-13.44-13.44z" fill="#4d4d4d"/><path d="m737.822 267.848h4.62v-1.05c0-18.69-6.93-25.411-23.521-25.411-5.041 0-17.431 1.26-17.431 8.19v6.091h-19.11v-10.501c0-17.43 26.461-19.951 36.751-19.951 34.441 0 43.682 18.061 43.682 41.582v45.151c0 3.15 1.68 4.62 4.62 4.62h8.61v17.431h-19.111c-9.45 0-13.23-4.62-13.23-12.181 0-3.57.42-6.3.42-6.3h-.42s-8.4 21.001-33.811 21.001c-18.271 0-36.122-11.131-36.122-32.342.001-34.23 46.203-36.33 64.053-36.33zm-23.52 52.292c17.22 0 28.351-18.061 28.351-33.812v-3.569h-5.25c-15.331 0-43.051.84-43.051 20.37-.001 8.61 6.509 17.011 19.95 17.011z" fill="#4d4d4d"/><path d="m844.682 225.216c12.811 0 38.222 5.25 38.222 23.311v10.92h-18.48v-5.88c0-7.56-11.971-10.92-19.741-10.92-20.79 0-36.331 15.541-36.331 38.011 0 24.15 17.641 37.802 37.382 37.802 19.95 0 32.971-14.701 32.971-14.701l8.82 14.49s-15.12 18.271-43.262 18.271c-33.391 0-56.701-23.731-56.701-55.652-.001-31.291 22.889-55.652 57.12-55.652z" fill="#4d4d4d"/><path d="m909.011 207.786c0-3.15-1.681-4.62-4.62-4.62h-8.61v-17.431h20.16c9.45 0 13.44 2.73 13.44 12.18v68.882h9.45c3.78 0 8.4-1.05 11.131-4.62l24.57-34.441h23.312l-28.771 39.481c-4.83 6.511-7.98 7.98-7.98 7.98v.42s3.57 1.26 7.141 7.98l15.751 28.771c1.68 3.36 3.779 4.2 9.03 4.2h6.51v17.432h-14.7c-9.87 0-13.021-1.68-17.641-9.87l-19.321-35.701c-2.31-3.99-7.14-4.41-10.5-4.41h-7.98v49.981h-20.37v-126.214z" fill="#4d4d4d"/><path d="m1019.431 207.786c0-3.15-1.681-4.62-4.62-4.62h-8.61v-17.431h20.16c9.451 0 13.44 3.99 13.44 13.44v112.773c0 3.15 1.681 4.62 4.621 4.62h8.609v17.432h-20.16c-9.45 0-13.44-3.99-13.44-13.44z" fill="#4d4d4d"/><path d="m1076.9 249.787c0-3.15-1.68-4.62-4.62-4.62h-8.61v-17.43h19.951c9.45 0 13.44 3.99 13.44 13.44v70.772c0 3.15 1.68 4.62 4.62 4.62h8.61v17.431h-19.951c-9.45 0-13.44-3.99-13.44-13.44zm.42-64.052h18.271v21.21h-18.271z" fill="#4d4d4d"/><path d="m1170.392 225.216c26.461 0 34.021 16.591 34.021 16.591h.42s0-1.68 0-3.36c0-6.3 3.36-10.71 11.76-10.71h19.741v17.43h-8.4c-2.73 0-4.62 1.47-4.62 4.2v80.223c0 35.071-26.671 48.512-53.552 48.512-12.811 0-25.831-3.57-36.331-8.82l6.93-16.381s13.021 7.141 28.981 7.141c18.48 0 33.601-8.19 33.601-29.611v-7.14c0-3.36.421-6.721.421-6.721h-.421c-6.3 10.29-16.17 16.171-31.711 16.171-29.4 0-47.461-23.731-47.461-54.392 0-30.452 17.01-53.133 46.621-53.133zm33.181 53.343c0-27.722-13.651-35.702-30.031-35.702-18.48 0-28.981 13.441-28.981 35.071 0 22.051 11.551 37.172 30.661 37.172 14.7 0 28.351-8.821 28.351-36.541z" fill="#4d4d4d"/><path d="m1258.011 207.786c0-3.15-1.681-4.62-4.62-4.62h-8.61v-17.431h20.16c9.45 0 13.44 3.99 13.44 13.021v41.371c0 5.04-.42 8.82-.42 8.82h.42c4.62-10.291 18.271-23.731 39.481-23.731 24.991 0 36.331 13.651 36.331 40.742v45.991c0 3.15 1.681 4.62 4.62 4.62h8.61v17.431h-19.95c-9.45 0-13.44-3.99-13.44-13.44v-49.981c0-14.91-3.15-26.671-20.161-26.671-16.17 0-29.19 10.92-33.601 26.251-1.471 4.2-1.891 9.03-1.891 14.07v49.771h-20.37v-126.214z" fill="#4d4d4d"/><path d="m1390.69 244.117h-13.86v-16.38h14.28v-29.191h19.951v29.191h25.41v16.38h-25.41v48.722c0 21.211 14.7 23.94 22.471 23.94 2.939 0 4.83-.42 4.83-.42v18.061s-2.73.42-7.141.42c-13.44 0-40.531-4.2-40.531-39.691z" fill="#4d4d4d"/></svg>